# xmcd
#
# Track frame offsets:
#	150
#	53100
#	101625
#	144825
#	196050
#	242700
#
# Disc length: 3790 seconds
#
# Revision: 3
# Processed by: cddbd v1.5.2PL0 Copyright (c) Steve Scherf et al.
# Submitted via: audiograbber 1.83.01
#
DISCID=480ecc06
DTITLE=Philip K. Dick - Minority Report
DYEAR=2006
DGENRE=Audio Book
TTITLE0=Kapitel 11
TTITLE1=Kapitel 12
TTITLE2=Kapitel 13
TTITLE3=Kapitel 14
TTITLE4=Kapitel 15
TTITLE5=Kapitel 16
EXTD=
EXTT0=
EXTT1=
EXTT2=
EXTT3=
EXTT4=
EXTT5=
PLAYORDER=
